<svg id="Layer_1" data-name="Layer 1" xmlns="http://www.w3.org/2000/svg" viewBox="0 0 2000 2000"><defs><style>.cls-1{fill:#00ffc3;}.cls-2{fill:#1e2d40;}</style></defs><rect class="cls-1" x="525.81" y="335.29" width="948.34" height="948.34" rx="229.9"/><path class="cls-2" d="M848.05,1049.14H808.33V898.47h0l-89-89,89-89V569.78H898l116.51-116.51H691.81V672.2L554.55,809.46l82.39,82.39h0l54.87,54.88v218.92H848.05l117.86-116.52H848.05Z"/><path class="cls-2" d="M1363,727.07h0l-54.88-54.87V453.27H1151.92L1034.06,569.78h157.58V720.46h0l89,89-89,89v150.68H1102L985.47,1165.66h322.68V946.72l137.26-137.26Z"/><path class="cls-2" d="M856.18,905.33v95.88H1143.8V617.72H856.18V857.38h191.75v48Zm95.88-143.82V713.59h95.87v47.92Z"/><path class="cls-1" d="M555,1590.41q-29.25,0-45.56-8.91t-22.86-27.57q-6.56-18.66-6.56-47.57t6.56-47.58q6.56-18.66,22.86-27.57T555,1422.3h69.59V1577H598.41V1434.74l13.45,11.44H555q-19.5,0-30.09,4.7t-14.62,17.65q-4,12.95-4,37.83t4,37.82q4,12.94,14.62,17.65t30.09,4.71h105.9v23.87Z"/><rect class="cls-1" x="522.43" y="1376.08" width="26.22" height="30.26"/><rect class="cls-1" x="568.49" y="1376.08" width="26.22" height="30.26"/><path class="cls-1" d="M660.94,1590.41v-23.87q4.37,0,5.55,3.19a25.55,25.55,0,0,1,1.18,8.57,27.14,27.14,0,0,1-1.18,8.75Q665.31,1590.41,660.94,1590.41Z"/><path class="cls-1" d="M660.94,1590.41q-4.37,0-5.55-3.36a27.17,27.17,0,0,1-1.17-8.75,25.58,25.58,0,0,1,1.17-8.57q1.18-3.2,5.55-3.19Z"/><polygon class="cls-1" points="660.94 1590.41 660.94 1566.54 857.62 1566.54 850.9 1573.26 850.9 1455.93 876.78 1455.93 876.78 1590.41 660.94 1590.41"/><path class="cls-1" d="M876.78,1590.41v-23.87h38q11.41,0,17.31-3.36t8.24-13.45q2.34-10.1,2.35-29.59v-81H968.9v81q0,26.22-5.54,41.69t-17.32,22q-11.76,6.56-31.26,6.56Z"/><rect class="cls-1" x="919.48" y="1376.08" width="26.22" height="30.26"/><path class="cls-1" d="M985.38,1590.41A59.77,59.77,0,0,1,963,1586a67.85,67.85,0,0,1-21-13.79l17.14-17.82a68.34,68.34,0,0,0,13.79,9.25,28.75,28.75,0,0,0,12.44,2.86h59.84l-10.08,10.76v-80.36q0-6-1.18-17.14t-3.36-25q-2.19-13.95-5.21-28.07l25.55-4.38q2.34,11.78,4.71,26.23t4,27.4a170.45,170.45,0,0,1,1.68,21v93.47Z"/><rect class="cls-1" x="943.69" y="1333.38" width="24.21" height="28.58"/><rect class="cls-1" x="965.54" y="1376.08" width="26.22" height="30.26"/><path class="cls-1" d="M1124.91,1422.31v173.48q0,21.18-9.75,33.12t-25.55,11.93a59,59,0,0,1-7.06-.5c-2.69-.34-5.6-.62-8.75-.84l-3,23.87q4.71.33,9.58.84a91.75,91.75,0,0,0,9.25.5q18.15,0,31.94-8.57a59.25,59.25,0,0,0,21.68-24.21q7.89-15.63,7.9-36.14V1422.31Z"/><path class="cls-1" d="M1374.87,1569.73c-.79-2.12-2.63-3.19-5.54-3.19v23.87c2.91,0,4.75-1.12,5.54-3.36a26.84,26.84,0,0,0,1.18-8.74A25.36,25.36,0,0,0,1374.87,1569.73Zm-41.85-3.19v23.87h36.31v-23.87Zm-69.6-144.23q-29.25,0-45.56,8.91T1195,1458.79q-6.55,18.66-6.55,47.57t6.55,47.57q6.55,18.66,22.86,27.57t45.56,8.91h43.37v9.08q0,20.17-12.78,30.76t-40.68,10.59q-8.4,0-20.34-1t-29.75-3.36l-4,21.18q15.81,3.36,29.09,5.21a182.4,182.4,0,0,0,25,1.85q24.89,0,42.7-7.56t27.4-22.36q9.58-14.8,9.59-35.64V1422.31Zm43.37,144.23h-43.37q-19.5,0-30.09-4.71t-14.63-17.65q-4-12.93-4-37.82t4-37.82q4-12.94,14.63-17.65t30.09-4.71h43.37Z"/><path class="cls-1" d="M1410,1349.35v241.06h26.23V1349.35Zm-40.68,217.19v23.87H1410v-23.87Zm-5.55,3.19a25.64,25.64,0,0,0-1.17,8.58,27.14,27.14,0,0,0,1.17,8.74q1.18,3.36,5.55,3.36v-23.87C1366.41,1566.54,1364.56,1567.61,1363.77,1569.73Z"/><path class="cls-1" d="M1494.05,1349.35v241.06h25.89V1349.35Z"/></svg>