<svg id="Layer_1" data-name="Layer 1" xmlns="http://www.w3.org/2000/svg" viewBox="0 0 2000 2000"><defs><style>.cls-1{fill:#1e2d40;}</style></defs><path class="cls-1" d="M358,1789.44q-42.19,0-65.73-12.85t-33-39.78q-9.47-26.93-9.46-68.64t9.46-68.64q9.45-26.91,33-39.77T358,1546.9H458.42V1770H420.59V1564.85l19.4,16.49H358q-28.14,0-43.41,6.8t-21.1,25.46q-5.82,18.68-5.82,54.57t5.82,54.57q5.82,18.69,21.1,25.47T358,1755h152.8v34.44Z"/><rect class="cls-1" x="310.96" y="1480.21" width="37.83" height="43.66"/><rect class="cls-1" x="377.41" y="1480.21" width="37.84" height="43.66"/><path class="cls-1" d="M510.81,1789.44V1755q6.3,0,8,4.61a36.79,36.79,0,0,1,1.7,12.37,39,39,0,0,1-1.7,12.61Q517.12,1789.45,510.81,1789.44Z"/><path class="cls-1" d="M510.8,1789.44q-6.29,0-8-4.85a39,39,0,0,1-1.7-12.61,36.79,36.79,0,0,1,1.7-12.37q1.71-4.6,8-4.61Z"/><polygon class="cls-1" points="510.8 1789.44 510.8 1755 794.58 1755 784.88 1764.7 784.88 1595.41 822.22 1595.41 822.22 1789.44 510.8 1789.44"/><path class="cls-1" d="M822.22,1789.44V1755H877q16.49,0,25-4.85t11.89-19.4q3.38-14.55,3.39-42.69v-116.9h37.83v116.9q0,37.83-8,60.15t-25,31.77q-17,9.46-45.11,9.46Z"/><rect class="cls-1" x="883.83" y="1480.21" width="37.84" height="43.66"/><path class="cls-1" d="M978.9,1789.44a86.15,86.15,0,0,1-32.25-6.3q-15.76-6.3-30.32-19.89l24.74-25.71q11.14,9.21,19.89,13.34A41.55,41.55,0,0,0,978.9,1755h86.35l-14.55,15.53V1654.59q0-8.73-1.7-24.74t-4.85-36.14q-3.17-20.12-7.52-40.5l36.86-6.31q3.39,17,6.8,37.84t5.82,39.53a247.09,247.09,0,0,1,2.42,30.32v134.85Z"/><rect class="cls-1" x="918.76" y="1418.6" width="34.93" height="41.23"/><rect class="cls-1" x="950.28" y="1480.21" width="37.84" height="43.66"/><path class="cls-1" d="M1129.28,1896.64a131.18,131.18,0,0,1-13.34-.72c-4.69-.49-9.29-.9-13.83-1.22l4.37-34.44q6.8.48,12.61,1.22a84.37,84.37,0,0,0,10.19.72q22.79,0,36.86-17.22t14.07-47.78V1546.9h37.84v250.3q0,29.58-11.4,52.15t-31.29,34.92Q1155.47,1896.65,1129.28,1896.64Z"/><path class="cls-1" d="M1365.5,1896.64a264,264,0,0,1-36.14-2.66q-19.15-2.67-42-7.52l5.83-30.56q25.69,3.39,42.93,4.85t29.34,1.45q40.26,0,58.7-15.28t18.43-44.38V1568.73l19.4,12.61h-82q-28.12,0-43.41,6.8t-21.1,25.46q-5.82,18.68-5.82,54.57t5.82,54.57q5.82,18.69,21.1,25.47t43.41,6.79h62.58v34.44h-62.58q-42.19,0-65.72-12.85t-33-39.78q-9.45-26.93-9.46-68.64t9.46-68.64q9.47-26.91,33-39.77t65.72-12.86h100.42v255.15q0,30.08-13.83,51.42t-39.53,32.26Q1401.39,1896.65,1365.5,1896.64Zm115-107.2V1755h52.38v34.44Zm52.38,0V1755c4.21,0,6.87,1.54,8,4.61a36.79,36.79,0,0,1,1.7,12.37,39,39,0,0,1-1.7,12.61C1539.72,1787.83,1537.06,1789.44,1532.85,1789.44Z"/><path class="cls-1" d="M1532.85,1789.44q-6.3,0-8-4.85a39.28,39.28,0,0,1-1.69-12.61,37.08,37.08,0,0,1,1.69-12.37q1.71-4.6,8-4.61Zm0,0V1755h58.69v34.44Zm58.69,0v-347.8h37.84v347.8Z"/><path class="cls-1" d="M1712.81,1789.44v-347.8h37.35v347.8Z"/><path class="cls-1" d="M743.7,1108.55h-67V854.37h0L526.55,704.23,676.69,554.09V299.9H827.93l196.55-196.54H480.15V472.68L248.6,704.23l139,139h0l92.57,92.57v369.31H743.7l198.82-196.54H743.7Z"/><path class="cls-1" d="M1612.42,565.24h0l-92.57-92.57V103.36H1256.3L1057.48,299.9h265.83V554.08h0l150.14,150.14L1323.31,854.36v254.19H1172.07L975.52,1305.09h544.33V935.77L1751.4,704.22Z"/><path class="cls-1" d="M757.41,866v161.73h485.18V380.77H757.41V785.09h323.46V866ZM919.14,623.36V542.49h161.73v80.87Z"/></svg>