<svg id="Layer_1" data-name="Layer 1" xmlns="http://www.w3.org/2000/svg" viewBox="0 0 2000 760.88"><defs><style>.cls-1{fill:#00ffc3;}.cls-2{fill:#1e2d40;}</style></defs><path class="cls-1" d="M286.14,471.8q-29.26,0-45.56-8.91t-22.86-27.56q-6.56-18.66-6.56-47.58t6.56-47.57q6.56-18.66,22.86-27.57t45.56-8.91h69.59V458.36H329.5V316.14L343,327.57H286.14q-19.51,0-30.1,4.71t-14.62,17.65q-4,12.94-4,37.82t4,37.83q4,12.94,14.62,17.65t30.1,4.7H392V471.8Z"/><rect class="cls-1" x="253.52" y="257.47" width="26.22" height="30.26"/><rect class="cls-1" x="299.58" y="257.47" width="26.22" height="30.26"/><path class="cls-1" d="M392,471.8V447.93q4.36,0,5.55,3.2a25.58,25.58,0,0,1,1.17,8.57,27.06,27.06,0,0,1-1.17,8.74C396.8,470.69,395,471.8,392,471.8Z"/><path class="cls-1" d="M392,471.8c-2.9,0-4.75-1.11-5.54-3.36a26.76,26.76,0,0,1-1.18-8.74,25.3,25.3,0,0,1,1.18-8.57q1.18-3.19,5.54-3.2Z"/><polygon class="cls-1" points="392.03 471.8 392.03 447.93 588.72 447.93 581.99 454.66 581.99 337.32 607.88 337.32 607.88 471.8 392.03 471.8"/><path class="cls-1" d="M607.88,471.8V447.93h38q11.43,0,17.32-3.36t8.23-13.45q2.36-10.08,2.36-29.58v-81H700v81q0,26.22-5.55,41.69t-17.31,22q-11.77,6.56-31.27,6.55Z"/><rect class="cls-1" x="650.58" y="257.47" width="26.22" height="30.26"/><path class="cls-1" d="M716.47,471.8a59.53,59.53,0,0,1-22.35-4.37,67.85,67.85,0,0,1-21-13.78l17.15-17.82A68.74,68.74,0,0,0,704,445.08a28.91,28.91,0,0,0,12.44,2.85h59.85l-10.09,10.76V378.34q0-6.06-1.18-17.15t-3.36-25.05q-2.19-13.93-5.21-28.07L782,303.7q2.36,11.78,4.71,26.23t4,27.4a172.46,172.46,0,0,1,1.68,21V471.8Z"/><rect class="cls-1" x="674.78" y="214.77" width="24.21" height="28.58"/><rect class="cls-1" x="696.64" y="257.47" width="26.22" height="30.26"/><path class="cls-1" d="M820.7,546.11a89,89,0,0,1-9.25-.51c-3.25-.33-6.44-.62-9.58-.84l3-23.87c3.15.22,6.06.5,8.75.84a57,57,0,0,0,7.06.5q15.79,0,25.55-11.93T856,477.18V303.7h26.22V477.18q0,20.51-7.9,36.15a59.23,59.23,0,0,1-21.68,24.2Q838.84,546.11,820.7,546.11Z"/><path class="cls-1" d="M984.42,546.11a184,184,0,0,1-25-1.85q-13.29-1.86-29.09-5.21l4-21.18q17.82,2.34,29.75,3.36t20.34,1q27.92,0,40.68-10.59t12.78-30.76v-162l13.45,8.74H994.51q-19.5,0-30.09,4.71t-14.63,17.65q-4,12.94-4,37.82t4,37.83q4,12.94,14.63,17.65t30.09,4.7h43.37V471.8H994.51q-29.25,0-45.56-8.91t-22.86-27.56q-6.55-18.66-6.55-47.58t6.55-47.57q6.55-18.66,22.86-27.57t45.56-8.91h69.6V480.55q0,20.83-9.59,35.63t-27.4,22.36Q1009.3,546.1,984.42,546.11Zm79.69-74.31V447.93h36.31V471.8Zm36.31,0V447.93c2.91,0,4.75,1.07,5.54,3.2a25.3,25.3,0,0,1,1.18,8.57,26.76,26.76,0,0,1-1.18,8.74C1105.17,470.69,1103.33,471.8,1100.42,471.8Z"/><path class="cls-1" d="M1100.41,471.8c-2.91,0-4.76-1.11-5.55-3.36a27.06,27.06,0,0,1-1.17-8.74,25.58,25.58,0,0,1,1.17-8.57q1.19-3.19,5.55-3.2Zm0,0V447.93h40.68V471.8Zm40.68,0V230.74h26.23V471.8Z"/><path class="cls-1" d="M1225.14,471.8V230.74H1251V471.8Z"/><rect class="cls-1" x="1321.28" y="146.66" width="467.56" height="467.56" rx="113.35"/><path class="cls-2" d="M1480.15,498.61h-19.58V424.32h0l-43.89-43.88,43.89-43.88V262.27h44.2l57.44-57.45H1403.12v108l-67.67,67.67,40.62,40.62h0l27,27.06V556.06h77l58.11-57.45h-58.11Z"/><path class="cls-2" d="M1734.05,339.82h0l-27-27.06V204.82h-77l-58.11,57.45h77.69v74.29h0l43.88,43.88-43.88,43.88v74.29h-44.2c-22.43,22.44-35,35-57.45,57.45H1707V448.11l67.67-67.67Z"/><path class="cls-2" d="M1484.16,427.71V475H1626V285.9h-141.8V404.07h94.53v23.64Zm47.26-70.9V333.17h47.27v23.64Z"/></svg>