<svg id="Layer_1" data-name="Layer 1" xmlns="http://www.w3.org/2000/svg" viewBox="0 0 2000 2000"><defs><style>.cls-1{fill:#1e2d40;}</style></defs><path class="cls-1" d="M743.7,1200.59h-67V946.42h0L526.55,796.28,676.69,646.14V392H827.93l196.55-196.54H480.15V564.73L248.6,796.28l139,139h0l92.57,92.57v369.31H743.7L942.52,1200.6H743.7Z"/><path class="cls-1" d="M1612.42,657.29h0l-92.57-92.57V195.41H1256.3L1057.48,392h265.83V646.13h0l150.14,150.14L1323.31,946.41V1200.6H1172.07L975.52,1397.14h544.33V1027.82L1751.4,796.27Z"/><path class="cls-1" d="M757.41,472.82V877.14h323.46V958H757.41v161.73h485.18V472.82Zm323.46,242.59H919.14V634.54h161.73Z"/><path class="cls-1" d="M191.81,1800.49l76-282.88h78.42l75.95,282.88H382.31l-18.47-67.74H249.7l-18.47,67.74Zm65.69-101.41h98.95L317,1550.46H296.92Z"/><path class="cls-1" d="M460.32,1800.49V1507.35h37.77v293.14Z"/><path class="cls-1" d="M586,1800.49,540,1594.8h39.41l36.13,172.84h7l43.93-168.33H705l44.34,168.33h6.57l36.54-172.84h38.19l-45.58,205.69H723.9l-39-151.5-38.6,151.5Z"/><path class="cls-1" d="M915.63,1804.6q-29.16,0-44.34-16t-15.19-47.21q0-20.94,7.39-33.87a46.56,46.56,0,0,1,22-19.51q14.58-6.56,36.34-7.8l59.53-5.74v-16q0-19.29-8.62-27.3t-25.87-8q-10.68,0-25,.82t-28.33,2q-14,1.23-25,2.46l-1.65-27.92q10.26-2.46,24.43-4.51t29.77-3.7a277.16,277.16,0,0,1,28.74-1.64q24.21,0,39.82,7a45.73,45.73,0,0,1,23,21.76q7.4,14.77,7.39,38.18v101q.83,8.22,6.78,12.11a35.84,35.84,0,0,0,15,5.14l-1.23,28.32q-9,0-17-.61a65.57,65.57,0,0,1-14.57-2.67,42.66,42.66,0,0,1-11.7-4.72,60.17,60.17,0,0,1-9.65-7.19,178.29,178.29,0,0,1-19.3,7,215,215,0,0,1-25.45,6.16A151.44,151.44,0,0,1,915.63,1804.6Zm7.8-30.39a114,114,0,0,0,21.15-2q10.86-2.06,20.73-4.72t16-4.72v-61.59l-54.6,5.34q-17.25,1.23-24.64,9.65t-7.39,24q0,16,7.19,25T923.43,1774.21Z"/><path class="cls-1" d="M1077,1800.49V1594.8h38.18v26.68a169.63,169.63,0,0,1,18.89-11.49,254,254,0,0,1,25.25-11.7,139.59,139.59,0,0,1,27.3-8v38.18a212.17,212.17,0,0,0-26.89,7q-13.76,4.53-25.46,9.65t-19.09,9.24v146.16Z"/><path class="cls-1" d="M1287.19,1804.6q-10.68,0-24.43-1.24t-27.1-3.08q-13.34-1.85-23.19-3.9l1.64-30.79q10.26,1.23,23.4,2.88t25.66,2.66q12.52,1,19.91,1,15.6,0,25.87-2.87t15.6-9.65q5.33-6.78,5.34-18.68,0-9.45-4.11-14.58t-15.19-8.62q-11.08-3.48-32.43-6.77-23-3.71-38.19-9.24t-22.58-17q-7.38-11.49-7.39-32,0-23.81,10.88-37.16a59.8,59.8,0,0,1,28.33-19.09,116.74,116.74,0,0,1,36.75-5.75q12.32,0,26.48,1.23t27.3,3.29q13.14,2.05,22.58,3.69l-1.23,31.21q-9.85-1.65-23-3.08t-26.28-2.26q-13.14-.82-23-.82a87.24,87.24,0,0,0-20.73,2.26q-9.24,2.25-14.37,8.21t-5.13,17q0,8.22,3.69,13.14t14.78,8.42q11.09,3.49,31.62,6.77,25.44,4.11,40.64,10.27t22.17,17.65q7,11.5,7,31.62,0,36.54-21.55,50.91T1287.19,1804.6Z"/><path class="cls-1" d="M1412.41,1800.49V1507.35h38.18v97.71a249,249,0,0,1,27.92-9.44,119.33,119.33,0,0,1,32.84-4.93q28.34,0,43.73,10.06t21.14,32.43q5.74,22.39,5.75,58.51v108.8h-38.59V1694.15q0-25.44-2.88-40.64t-11.29-22q-8.42-6.76-25.66-6.77a122.41,122.41,0,0,0-29.35,3.69,159.71,159.71,0,0,0-23.61,7.39v164.64Z"/><path class="cls-1" d="M1682.14,1804.6q-29.15,0-44.34-16t-15.19-47.21q0-20.94,7.39-33.87a46.54,46.54,0,0,1,22-19.51q14.57-6.56,36.33-7.8l59.53-5.74v-16q0-19.29-8.62-27.3t-25.86-8q-10.68,0-25,.82t-28.33,2q-14,1.23-25,2.46l-1.64-27.92q10.26-2.46,24.43-4.51t29.76-3.7a277.31,277.31,0,0,1,28.74-1.64q24.22,0,39.83,7a45.81,45.81,0,0,1,23,21.76q7.38,14.77,7.39,38.18v101q.81,8.22,6.77,12.11a35.89,35.89,0,0,0,15,5.14l-1.23,28.32q-9,0-17-.61a65.66,65.66,0,0,1-14.58-2.67,42.66,42.66,0,0,1-11.7-4.72A60.62,60.62,0,0,1,1754,1789a178,178,0,0,1-19.29,7,215.7,215.7,0,0,1-25.46,6.16A151.35,151.35,0,0,1,1682.14,1804.6Zm7.8-30.39a114,114,0,0,0,21.15-2q10.88-2.06,20.73-4.72t16-4.72v-61.59l-54.6,5.34q-17.25,1.23-24.63,9.65t-7.39,24q0,16,7.18,25T1689.94,1774.21Z"/></svg>